<?xml version="1.0" encoding="iso-8859-1"?>
<!-- Generator: Adobe Illustrator 16.0.0, SVG Export Plug-In . SVG Version: 6.00 Build 0)  -->
<!DOCTYPE svg PUBLIC "-//W3C//DTD SVG 1.1//EN" "http://www.w3.org/Graphics/SVG/1.1/DTD/svg11.dtd">
<svg xmlns="http://www.w3.org/2000/svg" xmlns:xlink="http://www.w3.org/1999/xlink" id="Layer_1" x="0px" y="0px" viewBox="0 0 521 521" style="enable-background:new 0 0 521 521;" xml:space="preserve">
<style type="text/css">
	.st0{fill:url(#SVGID_1_);}
	.st1{fill:none;}
	.st2{fill:#FFFFFF;}
</style>
<linearGradient id="SVGID_1_" gradientUnits="userSpaceOnUse" x1="-416.6795" y1="597.4886" x2="-418.1015" y2="595.5527" gradientTransform="matrix(521 0 0 -521 217557.9844 311269.6562)">
	<stop offset="0" style="stop-color:#006699"></stop>
	<stop offset="1" style="stop-color:#D2F8FF"></stop>
</linearGradient>
<circle class="st0" cx="260.5" cy="260.5" r="260.5"></circle>
<rect x="222.1" y="317.5" class="st1" width="144.9" height="35.9"></rect>
<rect x="222.1" y="194.9" class="st1" width="144.9" height="35.9"></rect>
<path class="st2" d="M194.9,246.8c0,6.2,5,11.2,11.1,11.2h177.2c6.1,0,11.1-5,11.1-11.2v-68c0-6.2-5-11.2-11.1-11.2H205.9  c-6.1,0-11.1,5-11.1,11.2v22.9H149v-50.2c0-6.1-5-11.1-11.1-11.1s-11.1,5-11.1,11.1v184c0,6.1,5,11.1,11.1,11.1h57v22.9  c0,6.2,5,11.2,11.1,11.2h177.2c6.1,0,11.1-5,11.1-11.2v-68c0-6.2-5-11.2-11.1-11.2H205.9c-6.1,0-11.1,5-11.1,11.2v22.9H149V223.9  h45.9V246.8z M217.1,189.9H372v45.9H217.1V189.9z M217.1,312.5H372v45.9H217.1V312.5z"></path>
</svg>
