<?xml version="1.0" encoding="utf-8"?><svg xmlns="http://www.w3.org/2000/svg" width="544.2" height="544.2" viewBox="0 0 544.2 544.2"><g fill="#168ab2"><path d="M220.3 187.8h184.9v54.8H220.3zM220.3 334.1h184.9v54.8H220.3z"/><path d="M272.1 0C2.1 0 0 121.8 0 272.1s2.1 272.1 272.1 272.1 272.1-121.8 272.1-272.1S542.1 0 272.1 0zm159.6 255.7c0 7.4-5.9 13.4-13.2 13.4H207c-7.2 0-13.2-6-13.2-13.4v-27.3H139v119.9h54.7V321c0-7.4 5.9-13.4 13.2-13.4h211.6c7.2 0 13.2 6 13.2 13.4v81.1c0 7.4-5.9 13.4-13.2 13.4H207c-7.2 0-13.2-6-13.2-13.4v-27.3h-68c-7.2 0-13.2-5.9-13.2-13.2V142c0-7.2 5.9-13.2 13.2-13.2 7.2 0 13.2 5.9 13.2 13.2v59.8h54.7v-27.3c0-7.4 5.9-13.4 13.2-13.4h211.6c7.2 0 13.2 6 13.2 13.4v81.2z"/></g></svg>